<svg width="26" height="24" viewBox="-1 -2 26 24" xmlns="http://www.w3.org/2000/svg"><g fill="none" fill-rule="evenodd"><path d="M.471 17.425c-1.104 1.916-.2 3.464 1.994 3.457l18.49-.061c2.204-.007 3.09-1.565 1.984-3.47l-9.25-15.925C12.58-.483 10.784-.472 9.682 1.44L.472 17.425z" stroke="#4A4A4A" stroke-width="2"/><path d="M12.751 7.912c-.163-.16-.322-.158-.477.004-.155.163-.15.323.012.482.163.16.322.158.477-.004.155-.163.15-.323-.012-.482zM9.55 9.164a.792.792 0 0 0-.59.247.835.835 0 0 0-.238.62l.016.663a.86.86 0 0 0 .269.615.86.86 0 0 0 .408.222L7.59 16.13c-.13.322-.088.638.128.948.196.289.478.437.845.443l6.032-.106a.827.827 0 0 0 .678-.278l.03-.03a.632.632 0 0 0 .115-.153.979.979 0 0 0 .065-.965l-2.018-4.499a.8.8 0 0 0 .411-.245.898.898 0 0 0 .24-.59l-.033-.678a.834.834 0 0 0-.253-.6.84.84 0 0 0-.617-.25l-3.664.037zm4.873 6.959c.05.1.052.2.003.299l-.045.053c-.045.053-.108.078-.191.076l-5.02-.114a.258.258 0 0 1-.248-.13.29.29 0 0 1-.052-.3l.558-1.87c.22-.12.508-.344.862-.674a4.686 4.686 0 0 1 1.064-.763c.355-.18.79-.254 1.306-.221l1.763 3.644zm-1.23-6.054l.015.63c.012.1-.037.152-.145.153l-.76.007.489 1.092-.043-.096a3.851 3.851 0 0 0-1.154.21c-.363.128-.638.256-.824.386-.187.13-.426.32-.718.57-.284.222-.497.38-.64.472l1.048-2.615-.76.008c-.108 0-.159-.049-.152-.15l-.016-.63c-.011-.1.037-.151.146-.152l3.36-.034c.11-.001.16.048.154.149zm-.402 4.23a.811.811 0 0 0 .223-.605.834.834 0 0 0-.855-.835.792.792 0 0 0-.59.247.811.811 0 0 0-.223.605.834.834 0 0 0 .855.835.792.792 0 0 0 .59-.247zm-.904-.882a.382.382 0 0 1 .283-.124.393.393 0 0 1 .288.118c.082.08.124.175.127.288a.39.39 0 0 1-.112.29.382.382 0 0 1-.283.123.393.393 0 0 1-.289-.117.402.402 0 0 1-.126-.288.39.39 0 0 1 .112-.29zm-1.205-7.292a.811.811 0 0 0-.224.604.834.834 0 0 0 .855.836.792.792 0 0 0 .59-.248.811.811 0 0 0 .223-.604.834.834 0 0 0-.855-.835.792.792 0 0 0-.59.247zm.777.759a.218.218 0 0 1-.16.07.224.224 0 0 1-.165-.067.23.23 0 0 1-.072-.164.223.223 0 0 1 .063-.165.218.218 0 0 1 .162-.07c.063 0 .118.022.164.067.046.045.07.1.072.164a.223.223 0 0 1-.064.165zm-1.62 8.53a.66.66 0 0 0 .481.206.643.643 0 0 0 .472-.216.657.657 0 0 0 .196-.484.677.677 0 0 0-.22-.48.643.643 0 0 0-.953.01.657.657 0 0 0-.197.484.68.68 0 0 0 .22.48zm.208-.768c.166-.172.335-.175.506-.009.172.166.175.335.01.506-.167.172-.335.175-.507.01-.172-.167-.175-.335-.009-.507zm2.651.739c-.163-.16-.321-.158-.476.005-.155.162-.151.323.012.482.162.159.321.157.476-.005.155-.162.151-.323-.012-.482z" fill="#4A4A4A"/></g></svg>