<svg xmlns="http://www.w3.org/2000/svg" width="509.707" height="142.439" viewBox="0 0 509.707 142.439"><path d="M0 35.469v71.365l62.837 35.605 62.833-35.605V35.469L62.813 0 0 35.469zm60.262 81.148L23.735 96.332V52.46l36.586 20.999-.059 43.158zm41.674-20.285l-36.148 20.285.067-43.123 36.081-21.034v43.872zm0-49.892L62.951 69.553 23.733 46.44l39.218-21.131 38.985 21.131zm67.569-4.108h-19.968v59.328h13.52V79.655h6.448c11.579 0 20.279-6.832 20.279-19.056 0-12.297-8.7-18.267-20.279-18.267zm-2.639 26.536h-3.809v-15.75h3.809c5.323 0 10.357 1.798 10.357 7.91.001 6.042-5.034 7.84-10.357 7.84zm27.443-26.536h13.52v59.328h-13.52zm72.207 0h-16.827l-10.93 16.182-10.932-16.182h-16.106l18.696 27.398-20.189 31.93h16.754l11.777-20.207 11.775 20.207h17.476l-20.911-31.93zm3.612 59.328h33.941V89.795h-20.422V77.857h19.56V65.991h-19.56V54.199h20.422V42.332h-33.941zm84.679-59.328l-19.156 47.463H322.33V42.332h-13.52v59.328h36.577l4.386-11.865h22.578l4.391 11.865h14.524l-23.944-59.328h-12.515zm-.43 35.596l6.614-17.257h.145l6.615 17.257h-13.374zm25.562-23.729h14.134v47.461h13.519V54.199h14.095V42.332h-41.748zm46.326 47.461h33.942V89.795h-20.422V77.857h19.559V65.991h-19.559V54.199h20.422V42.332h-33.942zm53.527-59.328h-14.94v59.328h14.94c16.324 0 29.914-12.37 29.914-29.699.001-17.26-13.662-29.629-29.914-29.629zm.665 47.245h-2.084V54.414h2.084c10.067 0 16.9 7.695 16.9 17.619-.072 9.922-6.902 17.544-16.9 17.544z" fill="#F9A731"/></svg>