<svg width="176" height="67" viewBox="0 0 176 67" xmlns="http://www.w3.org/2000/svg"><title>message sent</title><g fill="none" fill-rule="evenodd"><path d="M.742 32.47h61.761M32.416.728h35.726M32.416 65.593h35.726" stroke="#4A4A4A" stroke-width="1.35" stroke-linecap="round" stroke-linejoin="round"/><path d="M171.774 8.316c0-1.156-.408-2.116-1.233-2.885a4.197 4.197 0 0 0-2.953-1.156h-81c-1.142 0-2.122.387-2.947 1.156-.83.77-1.24 1.729-1.24 2.885v49.29c0 1.157.41 2.116 1.24 2.892.825.769 1.805 1.15 2.947 1.15h81c1.142 0 2.123-.381 2.953-1.15.825-.776 1.233-1.735 1.233-2.892V8.316z" fill="#E9E7F3"/><path d="M171.774 8.316c0-1.156-.049-2.116-.148-2.885-.1-.769-.22-1.156-.357-1.156h-9.78c-.138 0-.256.387-.356 1.156-.1.77-.15 1.729-.15 2.885v49.29c0 1.157.05 2.116.15 2.892.1.769.218 1.15.356 1.15h9.78c.138 0 .256-.381.357-1.15.1-.776.148-1.735.148-2.892V8.316z" fill="#DDD9ED"/><path d="M164.739 49.713c1.142.644 1.33 1.604.571 2.885-.383.644-.954.966-1.713.966-.254 0-.637-.131-1.143-.387l-18.25-12.323c-1.143-.637-1.331-1.603-.572-2.885.636-1.157 1.584-1.347 2.85-.578l18.257 12.322zm-37.651-6.158L91.534 20.258c-1.143-.776-1.331-1.67-.572-2.701.76-1.282 1.642-1.538 2.661-.77l33.465 21.951 33.465-21.95c1.019-.77 1.901-.513 2.667.769.76 1.031.571 1.925-.571 2.7l-35.561 23.298zm-16.544-5.586c.766 1.282.571 2.248-.571 2.885L91.722 53.177c-.506.256-.89.387-1.143.387-.759 0-1.33-.322-1.707-.966-.765-1.281-.57-2.24.565-2.885l18.258-12.322c1.265-.77 2.213-.579 2.849.578zm61.23-29.653c0-1.156-.408-2.116-1.233-2.885a4.197 4.197 0 0 0-2.953-1.156h-81c-1.142 0-2.122.387-2.947 1.156-.83.77-1.24 1.729-1.24 2.885v49.29c0 1.157.41 2.116 1.24 2.892.825.769 1.805 1.15 2.947 1.15h81c1.142 0 2.123-.381 2.953-1.15.825-.776 1.233-1.735 1.233-2.892V8.316zm1.617-5.868c1.583 1.603 2.375 3.562 2.375 5.868v49.29c0 2.313-.792 4.272-2.375 5.875-1.59 1.604-3.518 2.406-5.803 2.406h-81c-2.285 0-4.212-.802-5.803-2.406-1.583-1.603-2.375-3.562-2.375-5.875V8.316c0-2.306.792-4.265 2.375-5.868C82.375.838 84.303.036 86.588.036h81c2.285 0 4.212.801 5.803 2.412z" fill="#4A4A4A"/><path d="M127.088 43.555L91.534 20.258c-1.143-.776-1.331-1.67-.572-2.701.76-1.282 1.642-1.538 2.661-.77l33.465 21.951v4.817z" fill="#4A4A4A"/></g></svg>