<svg width="180" height="225" viewBox="546 224 180 225" xmlns="http://www.w3.org/2000/svg"><g fill="none" fill-rule="evenodd"><path d="M563.423 444.478h122.909m5.293 0h9.594m6.299 0h16.952m-176.94 0h10.595" stroke="#4A4A4A" stroke-width="1.458" stroke-linecap="round" stroke-linejoin="round"/><path d="M609.817 436.014h52.857V405.2h-52.857v30.813zm1.185-29.616h50.487v28.42h-50.487v-28.42zm61.148 32.009h-5.775v-34.253c0-.797-.271-1.47-.814-2.019-.543-.548-1.16-.822-1.85-.822h-54.782c-.79 0-1.456.299-1.999.897-.543.598-.814 1.246-.814 1.944v34.253H599.6c-1.085 0-1.628.548-1.628 1.645v1.496c0 .798.395 1.346 1.184 1.645l3.257 2.244v.15h66.774v-.15l3.258-2.244c.888-.2 1.332-.748 1.332-1.645v-1.496c0-1.097-.543-1.645-1.628-1.645zm-64.85-34.253c0-1.096.543-1.645 1.629-1.645h54.781c1.086 0 1.629.549 1.629 1.645v34.253H607.3v-34.253zm-6.07 39.04h69.143l-1.629 1.196h-65.737l-1.777-1.197zm71.512-1.646c0 .399-.198.598-.592.598H599.6l-.148-.15v.15c-.296-.299-.444-.498-.444-.598v-1.496c0-.399.198-.598.592-.598h72.549c.394 0 .592.2.592.598v1.496z" fill="#000"/><path fill="#FFF" d="M610.918 435.128h50.164v-28.94h-50.164z"/><path d="M667.16 235.067l5.704-5.76m-10.233 3.015v-6.552m13.39 13.873h-6.595" stroke="#4A4A4A" stroke-width="1.458" stroke-linecap="round" stroke-linejoin="round"/><path d="M659.707 243.161c0-.633-.224-1.158-.676-1.579a2.305 2.305 0 0 0-1.62-.633h-44.434a2.29 2.29 0 0 0-1.616.633c-.456.421-.68.946-.68 1.58v26.976c0 .633.224 1.158.68 1.582.452.421.99.63 1.616.63h44.434c.626 0 1.164-.209 1.62-.63.452-.424.676-.95.676-1.582V243.16z" fill="#E9E7F3"/><path d="M659.707 243.161c0-.633-.027-1.158-.082-1.579-.055-.42-.12-.633-.195-.633h-5.365c-.076 0-.14.212-.195.633-.055.421-.082.946-.082 1.58v26.976c0 .633.027 1.158.082 1.582.054.421.12.63.195.63h5.365c.075 0 .14-.209.195-.63.055-.424.082-.95.082-1.582V243.16z" fill="#DDD9ED"/><path d="M655.848 265.818c.626.352.73.877.313 1.579-.21.352-.524.529-.94.529-.139 0-.349-.072-.627-.213l-10.011-6.744c-.627-.349-.73-.877-.314-1.579.35-.633.869-.737 1.563-.316l10.016 6.744zm-20.654-3.37l-19.504-12.751c-.627-.425-.73-.914-.313-1.479.416-.7.9-.841 1.46-.42l18.357 12.013 18.357-12.013c.56-.421 1.043-.28 1.463.42.417.565.314 1.054-.313 1.479l-19.507 12.75zm-9.076-3.058c.42.702.314 1.23-.313 1.58l-10.012 6.743c-.277.14-.488.213-.626.213-.417 0-.73-.177-.937-.53-.42-.7-.313-1.226.31-1.578l10.015-6.744c.695-.421 1.214-.317 1.563.316zm33.589-16.229c0-.633-.224-1.158-.676-1.579a2.305 2.305 0 0 0-1.62-.633h-44.434a2.29 2.29 0 0 0-1.616.633c-.456.421-.68.946-.68 1.58v26.976c0 .633.224 1.158.68 1.582.452.421.99.63 1.616.63h44.434c.626 0 1.164-.209 1.62-.63.452-.424.676-.95.676-1.582V243.16zm.887-3.212c.868.878 1.303 1.95 1.303 3.212v26.977c0 1.266-.435 2.338-1.303 3.215-.873.878-1.93 1.317-3.183 1.317h-44.434c-1.253 0-2.31-.44-3.183-1.317-.869-.877-1.303-1.95-1.303-3.215V243.16c0-1.262.434-2.334 1.303-3.212.872-.88 1.93-1.32 3.183-1.32h44.434c1.253 0 2.31.44 3.183 1.32z" fill="#4A4A4A"/><path d="M639.389 269.734c.189.424.301 1.058.337 1.902.067.638-.08 1.038-.44 1.198-.363.162-.76.004-1.187-.473-.604-.592-1-1.1-1.188-1.524-.166-.37-.186-.729-.06-1.071.125-.343.37-.593.732-.755.361-.16.711-.174 1.049-.038.34.136.592.39.757.76zm-3.7-9.664c-.714-.286-1.408-.28-2.078.019-.673.3-1.14.81-1.407 1.533-.265.723-.246 1.43.062 2.12l1.135 2.549 4.956-2.207-1.135-2.549c-.307-.69-.819-1.178-1.532-1.465zm7.331 2.606c.528.211.909.583 1.145 1.113l1.986 4.46c.71 1.594.77 3.19.183 4.788-.587 1.597-1.655 2.74-3.204 3.43l-3.718 1.656c-1.55.69-3.114.718-4.694.086-1.58-.634-2.726-1.746-3.435-3.34l-1.986-4.46a2.047 2.047 0 0 1-.061-1.596 1.935 1.935 0 0 1 1.068-1.143l-1.135-2.55c-.71-1.593-.77-3.188-.183-4.785.588-1.6 1.657-2.743 3.206-3.433 1.547-.69 3.112-.718 4.694-.085 1.58.633 2.725 1.745 3.435 3.339l1.134 2.549a1.937 1.937 0 0 1 1.565-.029z" stroke="#4A4A4A" stroke-width="1.458" fill="#7ED321"/><path d="M635.194 262.448l-19.504-12.751c-.627-.425-.73-.914-.313-1.479.416-.7.9-.841 1.46-.42l18.357 12.013v2.637z" fill="#4A4A4A"/><path d="M634.67 318.09v-33.228m-17.212 15.908v-19.22m34.426 19.22v-19.22" stroke="#4A4A4A" stroke-width="1.458" stroke-linecap="round" stroke-linejoin="round"/><g transform="translate(547.81 322.5)"><ellipse stroke="#F2A641" stroke-width="2.187" cx="150.378" cy="56.974" rx="3.624" ry="3.661"/><ellipse stroke="#F2A641" stroke-width="2.187" cx="150.378" cy="56.974" rx="3.624" ry="3.661"/><ellipse stroke="#F2A641" stroke-width="2.187" cx="39.467" cy="16.967" rx="3.624" ry="3.661"/><g transform="translate(116.41 26.66)" stroke="#4A4A4A"><ellipse stroke-width=".729" fill="#F2A641" cx="56.168" cy="3.661" rx="3.624" ry="3.661"/><path d="M39.408 3.66h8.204m-46.817 0h33.228m-16.016 8.238H37.23" stroke-width="1.458" stroke-linecap="round" stroke-linejoin="round"/></g><g transform="matrix(-1 0 0 1 60.11 38.96)" stroke="#4A4A4A"><ellipse stroke-width=".729" fill="#F2A641" cx="56.168" cy="3.661" rx="3.624" ry="3.661"/><path d="M39.408 3.66h8.204m-46.817 0h33.228m-16.016 8.238H37.23" stroke-width="1.458" stroke-linecap="round" stroke-linejoin="round"/></g><path d="M100.432 11.32l5.66 16.442 16.276-5.604-5.661-16.442-16.275 5.604zm15.84-4.7l3.78 10.983-.476.164-3.924-3.857c-.425-.477-.955-.605-1.59-.386-.573.197-.912.589-1.018 1.176l-.739 3.739c-1.366-.87-2.569-1.127-3.607-.77-.509.175-.933.597-1.272 1.264-.339.668-.55 1.261-.631 1.78a22.02 22.02 0 0 0-.188 1.52l-1.494.514-3.782-10.982 14.94-5.145zm2.541 11.41l-11.475 3.95c.256-2.147.787-3.36 1.592-3.636.17-.059.341-.094.515-.106a2.55 2.55 0 0 1 .522.018 3.898 3.898 0 0 1 1.004.283l.438.19c.14.06.265.13.376.212.11.082.209.144.295.186a.727.727 0 0 1 .182.117l.097.074c.122.078.232.088.33.03a.33.33 0 0 0 .231-.259l.818-4.233c.074-.336.259-.556.556-.658.318-.11.602-.04.854.209l3.665 3.623zm-12.285 8.827l-1.183-3.436 14.94-5.144 1.183 3.436-14.94 5.144zm.445-10.893l2.034-.7c.551-.19.958-.557 1.22-1.103a2.1 2.1 0 0 0 .107-1.653 2.1 2.1 0 0 0-1.102-1.237c-.542-.268-1.089-.307-1.64-.118-.975.336-1.463 1.019-1.464 2.049-.396.088-.694.323-.895.703-.201.38-.235.764-.102 1.15.132.384.377.665.734.842.357.176.726.199 1.108.067zm-.708-2.055a.538.538 0 0 1 .245-.012l.457-.014-.08-.44a1.324 1.324 0 0 1 .158-.988c.18-.301.44-.51.78-.627a1.35 1.35 0 0 1 1.075.078c.357.177.602.458.735.843.132.385.112.757-.06 1.116-.173.359-.44.6-.8.724l-2.034.701a.708.708 0 0 1-.565-.04.722.722 0 0 1-.378-.426.685.685 0 0 1 .046-.536.708.708 0 0 1 .421-.379z" fill="#000"/><path d="M116.375 6.628l3.59 11.047-.48.155-3.856-3.925c-.416-.484-.944-.622-1.583-.414-.576.187-.922.573-1.038 1.159l-.804 3.725c-1.351-.894-2.55-1.172-3.594-.832-.511.166-.942.58-1.293 1.241-.35.662-.571 1.251-.663 1.769a22.137 22.137 0 0 0-.214 1.516l-1.503.488-3.589-11.047 15.027-4.882z" fill="#CFEEEF"/><path d="M119.021 17.846l-11.475 3.951c.256-2.147.787-3.36 1.592-3.637.17-.058.341-.093.515-.105a2.55 2.55 0 0 1 .522.018 3.898 3.898 0 0 1 1.004.283l.438.19c.14.06.265.13.376.212.11.081.21.143.295.185a.727.727 0 0 1 .182.117l.097.075c.122.078.232.088.33.03a.33.33 0 0 0 .231-.26l.818-4.232c.074-.337.259-.556.556-.659.318-.109.602-.04.854.21l3.665 3.622z" fill="#7ED321"/><path d="M71.239 12.49l-2.23-2.252a.4.4 0 0 0-.297-.113.355.355 0 0 0-.26.113l-.334.3c-.372-.25-.8-.35-1.282-.3-.483.05-.886.238-1.208.563l-4.459 4.542c-.223.175-.223.363 0 .563a.355.355 0 0 0 .26.113.4.4 0 0 0 .298-.113l4.459-4.542c.396-.4.854-.475 1.374-.225L56.116 22.7c-.198.175-.198.362 0 .563l.149.15a1.548 1.548 0 0 0-.372-.038c-.644 0-1.201.238-1.672.713-.991.976-1.486 2.465-1.486 4.467v.413h.371c.248 0 .558-.018.93-.056.37-.037.94-.181 1.708-.432.768-.25 1.375-.6 1.821-1.05.446-.451.669-1.014.669-1.69 0-.15-.012-.263-.037-.338l.148.113c.1.1.199.15.298.15.074 0 .16-.05.26-.15l7.84-7.92 4.496-4.505c.149-.2.149-.4 0-.6zM57.008 26.867c-.57.576-1.511.976-2.824 1.201l1.449-1.501c.173-.2.173-.388 0-.563-.174-.175-.36-.175-.557 0l-1.487 1.501c.223-1.35.62-2.302 1.19-2.852.321-.326.693-.488 1.114-.488.421 0 .793.162 1.115.488.297.3.446.663.446 1.088 0 .45-.149.826-.446 1.126zm1.635-2.177L56.933 23l7.32-7.394 1.672 1.727-7.282 7.357zm7.84-7.92l-1.672-1.727 3.901-3.942 1.672 1.69-3.901 3.979z" fill="#000"/><path d="M57.008 26.867c-.57.576-1.511.976-2.824 1.201l1.449-1.501c.173-.2.173-.388 0-.563-.174-.175-.36-.175-.557 0l-1.487 1.501c.223-1.35.62-2.302 1.19-2.852.321-.326.693-.488 1.114-.488.421 0 .793.162 1.115.488.297.3.446.663.446 1.088 0 .45-.149.826-.446 1.126z" fill="#E8E8E7"/><path fill="#E9E7F3" d="M58.643 24.69L56.933 23l7.32-7.394 1.672 1.727z"/><path fill="#F2565B" d="M66.483 16.77l-1.672-1.727 3.901-3.942 1.672 1.69z"/><path d="M125.032 42.843l1.022 4.337c.07.347-.011.639-.246.873l-6.299 6.3a.908.908 0 0 1-.665.287.927.927 0 0 1-.668-.294l-5.359-5.36a.927.927 0 0 1-.294-.667.908.908 0 0 1 .288-.665l6.299-6.299c.234-.235.526-.317.873-.245l4.337 1.021c.403.072.64.309.712.712z" fill="#F2A641"/><path d="M121.454 43.7a1.35 1.35 0 0 0-.411.997c.002.389.142.723.421 1.002.28.279.613.42 1.002.421a1.35 1.35 0 0 0 .998-.411 1.35 1.35 0 0 0 .411-.998 1.377 1.377 0 0 0-.422-1.001 1.374 1.374 0 0 0-1.001-.422 1.35 1.35 0 0 0-.998.411z" fill="#FFF"/><path d="M124.524 41.216l-4.337-1.022c-.654-.184-1.236-.02-1.747.491l-6.3 6.3a1.793 1.793 0 0 0-.534 1.33c.003.527.186.972.548 1.335l5.36 5.359a1.83 1.83 0 0 0 1.335.548c.527.003.97-.176 1.33-.535l6.299-6.299c.511-.51.675-1.093.49-1.747l-1.02-4.337c-.185-.764-.66-1.239-1.424-1.423zm.508 1.627l1.022 4.337c.07.347-.011.639-.246.873l-6.299 6.3a.908.908 0 0 1-.665.287.927.927 0 0 1-.668-.294l-5.359-5.36a.927.927 0 0 1-.294-.667.908.908 0 0 1 .288-.665l6.299-6.299c.234-.235.526-.317.873-.245l4.337 1.021c.403.072.64.309.712.712zm-3.578.856a1.35 1.35 0 0 0-.411.998c.002.389.142.723.421 1.002.28.279.613.42 1.002.421a1.35 1.35 0 0 0 .998-.411 1.35 1.35 0 0 0 .411-.998 1.377 1.377 0 0 0-.422-1.001 1.374 1.374 0 0 0-1.001-.422 1.35 1.35 0 0 0-.998.411zm1.675 1.675a.908.908 0 0 1-.665.288.927.927 0 0 1-.668-.295.927.927 0 0 1-.295-.668.908.908 0 0 1 .288-.665.908.908 0 0 1 .665-.288c.25.001.473.1.668.295a.927.927 0 0 1 .295.668.908.908 0 0 1-.288.665zM92.106 3.931c-.793-.804-1.755-1.206-2.888-1.206-1.132 0-2.094.402-2.887 1.206l-6.596 6.637a3.136 3.136 0 0 0-.935 2.283c0 .891.312 1.643.935 2.256a2.955 2.955 0 0 0 2.222.948c.878 0 1.628-.316 2.25-.948l6.625-6.608c.434-.46.651-1.005.651-1.637a2.31 2.31 0 0 0-.65-1.638 2.241 2.241 0 0 0-1.615-.66c-.622 0-1.16.22-1.613.66L82.65 10.28c-.207.21-.207.431 0 .661.208.21.425.21.652 0l4.954-5.056a1.3 1.3 0 0 1 .962-.402 1.3 1.3 0 0 1 .963.402c.264.268.396.594.396.977s-.132.708-.396.976l-6.625 6.637c-.434.44-.962.66-1.585.66s-1.16-.22-1.614-.66a2.304 2.304 0 0 1-.65-1.638c0-.632.216-1.168.65-1.609l6.568-6.578a2.955 2.955 0 0 1 2.223-.948c.877 0 1.628.316 2.25.948.623.632.935 1.393.935 2.283 0 .891-.312 1.643-.935 2.256l-4.897 4.998c-.246.21-.246.422 0 .632.207.25.415.25.623 0l4.982-5.027c.793-.805 1.19-1.781 1.19-2.93 0-1.15-.397-2.126-1.19-2.93z" fill="#000"/><path d="M100.525 61.109c-1.744.67-3.478.615-5.202-.163-1.724-.778-2.924-2.048-3.6-3.81-.677-1.763-.635-3.51.125-5.241.76-1.732 2.013-2.933 3.758-3.602 1.744-.67 3.478-.616 5.202.162 1.724.778 2.924 2.049 3.6 3.81.677 1.763.635 3.51-.125 5.242-.76 1.732-2.013 2.932-3.758 3.602z" fill="#E9E7F3"/><path d="M95.114 47.011c-2.115.812-3.625 2.25-4.531 4.313-.906 2.063-.95 4.163-.13 6.299a8.267 8.267 0 0 0 2.257 3.27l-3.228 7.35a2.41 2.41 0 0 0-.044 1.901 2.324 2.324 0 0 0 1.261 1.331 2.277 2.277 0 0 0 1.82.06 2.36 2.36 0 0 0 1.364-1.305l3.228-7.35a8.05 8.05 0 0 0 3.906-.49c2.115-.811 3.625-2.249 4.531-4.312.906-2.063.95-4.163.13-6.3-.82-2.135-2.258-3.667-4.312-4.594-2.054-.927-4.138-.985-6.252-.173zm-2.331 22.722a1.216 1.216 0 0 1-.694.68c-.291.112-.592.097-.904-.043a1.156 1.156 0 0 1-.637-.652c-.102-.267-.091-.593.034-.978l3.13-7.13a8.094 8.094 0 0 0 2.202.994l-3.131 7.13zm7.742-8.624c-1.744.67-3.478.615-5.202-.163-1.724-.778-2.924-2.048-3.6-3.81-.677-1.763-.635-3.51.125-5.241.76-1.732 2.013-2.933 3.758-3.602 1.744-.67 3.478-.616 5.202.162 1.724.778 2.924 2.049 3.6 3.81.677 1.763.635 3.51-.125 5.242-.76 1.732-2.013 2.932-3.758 3.602zm-4.181-10.894c-1.216.467-2.091 1.308-2.625 2.524-.534 1.216-.565 2.438-.094 3.666.082.214.23.28.44.199.212-.081.277-.229.195-.442-.41-1.068-.389-2.118.064-3.15s1.208-1.75 2.266-2.156c.211-.081.276-.229.194-.442-.082-.214-.229-.28-.44-.199z" fill="#000"/><path d="M92.783 69.733a1.216 1.216 0 0 1-.694.68c-.291.112-.592.097-.904-.043a1.156 1.156 0 0 1-.637-.652c-.102-.267-.091-.593.034-.978l3.13-7.13a8.094 8.094 0 0 0 2.202.994l-3.131 7.13z" fill="#F6A623"/><path d="M93.977 32.909l-3.802-7.69c-.263-.487-.673-.677-1.228-.569L77.83 26.81c-.555.109-.864.438-.925.989l-.645 8.553a1.02 1.02 0 0 0 .025.312l.737 3.79c.114.586.432 1.051.956 1.394a2.205 2.205 0 0 0 1.688.34l13.34-2.593a2.205 2.205 0 0 0 1.437-.947c.357-.514.478-1.065.364-1.651l-.736-3.79a1.02 1.02 0 0 0-.094-.298zm-2.964.33l-2.258.439c-.44.085-.737.354-.89.805l-.496 1.712-3.751.73-1.102-1.402c-.31-.361-.686-.5-1.126-.414l-2.258.44.475-6.274 8.615-1.675 2.79 5.639z" fill="#34A6C9"/><path d="M93.977 32.909l-3.802-7.69c-.263-.487-.673-.677-1.228-.569L77.83 26.81c-.555.109-.864.438-.925.989l-.645 8.553a1.02 1.02 0 0 0 .025.312l.737 3.79c.114.586.432 1.051.956 1.394a2.205 2.205 0 0 0 1.688.34l13.34-2.593a2.205 2.205 0 0 0 1.437-.947c.357-.514.478-1.065.364-1.651l-.736-3.79a1.02 1.02 0 0 0-.094-.298zm-.281 4.304a1.06 1.06 0 0 1-.162.839c-.169.243-.415.397-.74.46l-13.339 2.593c-.324.063-.61.013-.858-.15a1.06 1.06 0 0 1-.464-.717l-.737-3.79.645-8.554 11.116-2.16 3.802 7.689.737 3.79zm-5.579-10.154l-8.615 1.675c-.278.054-.425.223-.442.507l-.648 6.869c-.039.171.015.325.162.46a.577.577 0 0 0 .49.115l2.537-.493 1.101 1.402c.31.36.686.498 1.126.413l3.752-.73c.44-.085.736-.353.889-.804l.496-1.712 2.536-.493c.208-.04.346-.138.412-.29.085-.181.078-.344-.022-.488l-3.174-6.126c-.122-.257-.322-.359-.6-.305zm2.896 6.18l-2.258.439c-.44.085-.737.354-.89.805l-.496 1.712-3.751.73-1.102-1.402c-.31-.361-.686-.5-1.126-.414l-2.258.44.475-6.274 8.615-1.675 2.79 5.639z" fill="#000"/><path fill="#6CBFD2" d="M50.663.119h5.436V5.61h-5.436z"/><path fill="#B8E986" d="M129.48 7.441l5.435 5.491h-5.435zm32.613 36.609l5.436 5.49h-5.436z"/><path fill="#6CBFD2" d="M132.488 66.014h5.436v5.491h-5.436zm-95.414-.915h5.436v5.491h-5.436zm97.841-62.234h5.436v5.491h-5.436z"/><path d="M72.196 61.52c.109.016.209-.022.3-.114.093-.092.131-.192.115-.3l-.76-3.71a.509.509 0 0 0-.093-.186l-7.194-7.193a1.746 1.746 0 0 0-1.242-.528 1.631 1.631 0 0 0-1.236.492l-.991.99a1.635 1.635 0 0 0-.492 1.237c.01.487.186.9.528 1.242l7.193 7.194a.463.463 0 0 0 .163.116l3.71.76z" fill="#F5E6B3"/><path d="M71.204 57.624l.262 1.368-1.383 1.383-1.345-.285-.186-.186a.664.664 0 0 1-.188-.488.651.651 0 0 1 .183-.485.686.686 0 0 1 .508-.206.666.666 0 0 1 .488.188c.17.17.333.179.486.025.17-.169.168-.338-.002-.51a.664.664 0 0 1-.188-.487.651.651 0 0 1 .183-.485.686.686 0 0 1 .508-.206c.2.001.363.064.488.188l.186.186z" fill="#FFF"/><path d="M72.196 61.52c.109.016.209-.022.3-.114.093-.092.131-.192.115-.3l-.76-3.71a.509.509 0 0 0-.093-.186l-7.194-7.193a1.746 1.746 0 0 0-1.242-.528 1.631 1.631 0 0 0-1.236.492l-.991.99a1.635 1.635 0 0 0-.492 1.237c.01.487.186.9.528 1.242l7.193 7.194a.463.463 0 0 0 .163.116l3.71.76zm-3.075-3.49a1.4 1.4 0 0 0-.416.045l-4.377-4.377.484-.484 4.377 4.377a1.376 1.376 0 0 0-.068.44zm-3.825-5.3l.507-.507 4.376 4.377a1.474 1.474 0 0 0-.646.367l-4.237-4.237zm.018-.996L62.848 54.2l-.488-.489 2.465-2.465.49.488zm-1.493 2.471l4.237 4.237a1.194 1.194 0 0 0-.344.624l-4.377-4.377.484-.484zm8 6.526l-.904-.213.715-.714.19.927zm-.617-3.107l.262 1.368-1.383 1.383-1.345-.285-.186-.186a.664.664 0 0 1-.188-.488.651.651 0 0 1 .183-.485.686.686 0 0 1 .508-.206.666.666 0 0 1 .488.188c.17.17.333.179.486.025.17-.169.168-.338-.002-.51a.664.664 0 0 1-.188-.487.651.651 0 0 1 .183-.485.686.686 0 0 1 .508-.206c.2.001.363.064.488.188l.186.186zm-9.597-6.14l.99-.99c.2-.2.447-.3.74-.298.294.001.541.103.743.305l.233.232-2.466 2.466-.232-.233a1.047 1.047 0 0 1-.317-.73.982.982 0 0 1 .309-.752z" fill="#000"/><path d="M61.607 51.484l.99-.99c.2-.2.447-.3.74-.298.294.001.541.103.743.305l.233.232-2.466 2.466-.232-.233a1.047 1.047 0 0 1-.317-.73.982.982 0 0 1 .309-.752z" fill="#F2565B"/></g></g></svg>