<svg width="86" height="119" viewBox="482 331 86 119" xmlns="http://www.w3.org/2000/svg"><g fill="none" fill-rule="evenodd" transform="translate(482 331)"><g transform="translate(15 49)"><path d="M.424.793c19.47 14.968 46.838 2 53.717 8.507 4.81 4.549-2.985 14.06-9.11 11.46-9.736-4.13-43.235-10.825-43.235 5.995 0 9.659 28.565-6.87 37.516 1.577 5.72 5.4 0 7.42-10.596 7.42-10.595 0-15.277 6.318.273 11.305" stroke="#9D9D99" stroke-width="2.6" stroke-linecap="round" stroke-linejoin="round" stroke-dasharray="3.9"/><ellipse stroke="#4A4A4A" stroke-width="1.3" fill="#C2C2C2" cx="8.271" cy="18.138" rx="3.229" ry="3.243"/><ellipse stroke="#4A4A4A" stroke-width="1.3" fill="#C2C2C2" cx="40.563" cy="29.743" rx="3.229" ry="3.243"/><path d="M21.842 29.708l-.674.673a.459.459 0 0 1-.337.14.46.46 0 0 1-.337-.14l-1.462-1.462-1.46 1.46a.459.459 0 0 1-.336.14.46.46 0 0 1-.337-.141l-.675-.675a.46.46 0 0 1-.14-.337c0-.131.046-.243.14-.337l1.459-1.46-1.462-1.461a.46.46 0 0 1-.14-.337c0-.131.046-.244.14-.337l.673-.674a.459.459 0 0 1 .337-.14.46.46 0 0 1 .337.14l1.462 1.463 1.46-1.46a.459.459 0 0 1 .336-.14.46.46 0 0 1 .337.14l.675.676a.46.46 0 0 1 .14.337.459.459 0 0 1-.14.337l-1.459 1.459 1.462 1.462a.46.46 0 0 1 .14.337.459.459 0 0 1-.14.337zm9.041-19.632l-.673.674a.459.459 0 0 1-.337.14.46.46 0 0 1-.337-.14l-1.462-1.462-1.46 1.459a.459.459 0 0 1-.336.14.46.46 0 0 1-.338-.14l-.674-.675a.46.46 0 0 1-.141-.338c0-.13.047-.243.14-.337l1.46-1.459-1.462-1.462a.46.46 0 0 1-.141-.337c0-.13.047-.243.14-.337l.674-.673a.459.459 0 0 1 .337-.14.46.46 0 0 1 .337.14l1.462 1.462 1.459-1.46a.459.459 0 0 1 .337-.14.46.46 0 0 1 .337.141l.675.675a.46.46 0 0 1 .14.337.459.459 0 0 1-.14.337l-1.46 1.46 1.463 1.461a.46.46 0 0 1 .14.337.459.459 0 0 1-.14.337z" fill="#4A4A4A"/></g><path d="M71.595 5.723c0-.78-.278-1.426-.837-1.944A2.856 2.856 0 0 0 68.756 3H13.838c-.774 0-1.439.261-1.998.78-.563.517-.84 1.163-.84 1.943v33.201c0 .78.277 1.426.84 1.948a2.834 2.834 0 0 0 1.998.775h54.918c.775 0 1.44-.257 2.002-.775.56-.522.837-1.169.837-1.948V5.723z" fill="#E9E7F3"/><path d="M54.126 27.747l6.778-6m.222 6l-6.777-6m-32.223 6l6.778-6m.222 6l-6.777-6" stroke="#4A4A4A" stroke-width="1.8" stroke-linecap="round" stroke-linejoin="round"/><path d="M14.767 35.282c-1.238 0-2.265.032-3.088.096-.823.065-1.238.142-1.238.231v3.474c0 .09.415 3.037 1.238 3.101.823.066 1.85.098 3.088.098h52.749c1.238 0 2.264-.032 3.094-.098.823-.064 1.231-3.011 1.231-3.1v-3.475c0-.089-.408-.166-1.23-.23a40.976 40.976 0 0 0-3.095-.097h-52.75z" fill="#DDD9ED"/><path d="M51.792 33.721c.745 1.383-.604 2.9-2.611 2.9H34.82c-2.008 0-3.358-1.517-2.612-2.9C33.761 30.841 37.561 30 42 30c4.44 0 8.24.842 9.792 3.721" stroke="#4A4A4A" fill="#FEFEFE"/><path d="M11 3c2.364 0 27.743 15.213 30.633 15.213 3.322 0 30.789-14.861 30.789-14.861" stroke="#918DA9" stroke-width="2" stroke-linecap="round" stroke-linejoin="round"/><path d="M71.3 5.578c0-.78-.276-1.426-.835-1.944a2.856 2.856 0 0 0-2.003-.779H13.545c-.775 0-1.44.262-1.998.78-.563.517-.84 1.164-.84 1.943V38.78c0 .779.277 1.425.84 1.947a2.834 2.834 0 0 0 1.998.775h54.917c.775 0 1.44-.257 2.003-.775.559-.522.836-1.168.836-1.947V5.578zm1.097-3.953c1.073 1.08 1.61 2.399 1.61 3.953V38.78c0 1.558-.537 2.877-1.61 3.957-1.079 1.08-2.386 1.62-3.935 1.62H13.545c-1.55 0-2.856-.54-3.934-1.62C8.537 41.657 8 40.337 8 38.78V5.578c0-1.554.537-2.873 1.61-3.953C10.69.54 11.997 0 13.546 0h54.917c1.55 0 2.856.54 3.935 1.625z" fill="#918DA9"/><ellipse fill="#E9E9EA" cx="43" cy="113.5" rx="43" ry="5.5"/></g></svg>