<svg width="435" height="459" viewBox="0 0 435 459" xmlns="http://www.w3.org/2000/svg"><title>fa-sent</title><g fill="#030404" fill-rule="evenodd"><path d="M112.118 211.192l-54.974 80.316c-.19.38-.423 1.13-.707 2.263-.283 1.13-.52 1.887-.707 2.263h89.395L172 350.349h90.525l26.875-54.315h89.395a75.166 75.166 0 0 1-.707-2.263 97.735 97.735 0 0 0-.707-2.263l-56.974-80.316-1.715-41.16s.413-7.45 3.413-10.325c3.244-3.11 12.841-2.83 12.841-2.83 4.902 0 9.854 1.604 14.853 4.809 4.995 3.209 8.438 7.169 10.325 11.88l67.33 96.159c4.711 11.506 7.071 23.104 7.071 34.796v136.355c0 4.906-1.795 9.15-5.375 12.73-3.585 3.585-7.828 5.375-12.73 5.375H18.105c-4.906 0-9.15-1.79-12.73-5.375C1.79 450.026 0 445.782 0 440.876V304.52c0-11.692 2.356-23.29 7.072-34.796l67.33-96.158c1.882-4.712 5.325-8.672 10.324-11.881 4.996-3.205 9.946-4.81 14.853-4.81 0 0 11.894-.83 13.77 1.67 1.19 1.589 1.041 6.237 1.041 6.237l-2.272 46.409z"/><path d="M227.772 4.346c-5.8-5.795-15.195-5.795-20.99 0L121.057 90.07c-5.799 5.8-8.018 20.994 7.235 20.994l38.594.01V244.4c0 8.331 6.754 15.09 15.085 15.09h70.413c8.332 0 15.091-6.754 15.091-15.09V111.08l38.784-.01c15.166 0 13.034-15.196 7.235-20.996L227.77 4.346z"/></g></svg>