<svg width="199" height="188" viewBox="212 191 199 188" xmlns="http://www.w3.org/2000/svg" xmlns:xlink="http://www.w3.org/1999/xlink"><defs><rect id="a" width="90" height="28" rx="3"/><mask id="b" x="0" y="0" width="90" height="28" fill="#fff"><use xlink:href="#a"/></mask><path id="c" d="M9.131.393H.187v8.873h8.944V.393z"/></defs><g fill="none" fill-rule="evenodd"><g transform="translate(320.063 258.05)"><use stroke="#4A4A4A" mask="url(#b)" stroke-width="4" fill="#E9E7F3" xlink:href="#a"/><rect fill="#DDD9ED" x="84" y="2" width="4" height="24" rx="1"/><circle fill="#4A4A4A" cx="12.631" cy="13.922" r="3"/><circle fill="#4A4A4A" cx="22.261" cy="13.922" r="3"/><circle fill="#4A4A4A" cx="31.892" cy="13.922" r="3"/><circle fill="#4A4A4A" cx="41.523" cy="13.922" r="3"/><circle fill="#4A4A4A" cx="51.153" cy="13.922" r="3"/><circle fill="#4A4A4A" cx="60.784" cy="13.922" r="3"/><path d="M50.631 47.699l-1.75 1.745c-.241.24-.533.36-.876.36-.344 0-.636-.12-.876-.36l-3.786-3.773-3.786 3.773c-.24.24-.532.36-.875.36-.344 0-.635-.12-.876-.36l-1.751-1.745c-.24-.24-.36-.53-.36-.873 0-.342.12-.633.36-.873l3.786-3.773-3.786-3.773c-.24-.24-.36-.53-.36-.872 0-.343.12-.633.36-.873l1.751-1.745c.24-.24.532-.36.876-.36.343 0 .635.12.875.36l3.786 3.773 3.786-3.773c.24-.24.532-.36.876-.36.343 0 .635.12.875.36l1.751 1.745c.24.24.361.53.361.873 0 .342-.12.633-.36.872l-3.786 3.773 3.785 3.773c.24.24.361.53.361.873 0 .342-.12.633-.36.873z" stroke="#4A4A4A" stroke-width="2" stroke-linecap="round" stroke-linejoin="round" fill="#F2565B"/></g><g transform="translate(212.443 367.24)"><ellipse fill="#F7F9FA" cx="47.546" cy="5.485" rx="47.546" ry="5.485"/><ellipse fill="#E9EAEC" cx="46.993" cy="5.485" rx="19.35" ry="2.194"/></g><path d="M292.705 275.098c0 19.991-16.337 36.198-36.49 36.198-20.151 0-36.488-16.207-36.488-36.198 0-19.992 16.337-36.2 36.489-36.2 20.152 0 36.489 16.208 36.489 36.2" fill="#4D4C4E"/><path d="M292.288 255.835a2.687 2.687 0 0 1-2.698 2.677 2.687 2.687 0 0 1-2.698-2.677 2.687 2.687 0 0 1 2.698-2.676 2.687 2.687 0 0 1 2.698 2.676m-3.196-8.775a2.687 2.687 0 0 1-2.698 2.677 2.687 2.687 0 0 1-2.698-2.677 2.687 2.687 0 0 1 2.698-2.677 2.687 2.687 0 0 1 2.698 2.677m-8.967-3.29a2.687 2.687 0 0 1-2.698 2.676 2.687 2.687 0 0 1-2.698-2.677 2.687 2.687 0 0 1 2.698-2.676 2.687 2.687 0 0 1 2.698 2.676" fill="#4D4C4E"/><path d="M296.485 255.835a2.687 2.687 0 0 1-2.698 2.677 2.687 2.687 0 0 1-2.698-2.677 2.687 2.687 0 0 1 2.698-2.676 2.687 2.687 0 0 1 2.698 2.676m-4.197-5.995a2.687 2.687 0 0 1-2.698 2.676 2.687 2.687 0 0 1-2.698-2.676 2.687 2.687 0 0 1 2.698-2.677 2.687 2.687 0 0 1 2.698 2.677" fill="#4D4C4E"/><path d="M296.476 252.4c0 2.02-1.65 3.657-3.686 3.657s-3.687-1.638-3.687-3.657c0-2.02 1.651-3.657 3.687-3.657 2.035 0 3.686 1.637 3.686 3.657m-.55 27.727c0 1.566-1.28 2.836-2.859 2.836s-2.858-1.27-2.858-2.836c0-1.566 1.28-2.836 2.858-2.836 1.58 0 2.859 1.27 2.859 2.836" fill="#4D4C4E"/><path d="M295.605 283.259a2.687 2.687 0 0 1-2.698 2.676 2.687 2.687 0 0 1-2.698-2.676 2.687 2.687 0 0 1 2.698-2.677 2.687 2.687 0 0 1 2.698 2.677m-36.772 33.864c0 .796-.65 1.44-1.45 1.44a1.445 1.445 0 0 1-1.451-1.44c0-.795.649-1.439 1.45-1.439.802 0 1.451.644 1.451 1.44" fill="#4D4C4E"/><path d="M258.143 322.266c-11.602 0-21.009 9.331-21.009 20.842v9.872c0 2.423 1.98 4.388 4.423 4.388h40.591c0-11.51 12.221-36.505-8.525-35.102h-15.48z" fill="#B78F65"/><path d="M265.883 331.041c-3.664 0-6.634-2.946-6.634-6.581v-15.357h13.268v15.357c0 3.635-2.97 6.581-6.634 6.581" fill="#B78F65"/><path d="M272.639 318.582s-4.953 1.097-6.635 1.097c-1.681 0-6.634-1.097-6.634-1.097v-2.194s4.953 1.097 6.634 1.097c1.682 0 6.635-1.097 6.635-1.097v2.194z" fill="#292929" opacity=".2"/><path d="M232.724 297.56c0 1.82-1.489 3.295-3.323 3.295-1.836 0-3.324-1.475-3.324-3.296 0-1.82 1.488-3.296 3.324-3.296 1.834 0 3.323 1.475 3.323 3.296" fill="#4D4C4E"/><path d="M235.667 295.18c0 3.535-2.89 6.402-6.453 6.402-3.565 0-6.454-2.867-6.454-6.402 0-3.536 2.89-6.402 6.454-6.402 3.564 0 6.453 2.866 6.453 6.402" fill="#4D4C4E"/><path d="M235.208 303.18c0 1.895-1.549 3.432-3.46 3.432-1.91 0-3.46-1.537-3.46-3.432 0-1.896 1.55-3.433 3.46-3.433 1.911 0 3.46 1.537 3.46 3.433m20.286 10.894c0 2.479-2.025 4.489-4.524 4.489-2.5 0-4.524-2.01-4.524-4.49 0-2.478 2.025-4.488 4.524-4.488s4.524 2.01 4.524 4.489" fill="#4D4C4E"/><path d="M248.146 311.273c0 2.411-1.97 4.365-4.4 4.365-2.43 0-4.4-1.954-4.4-4.365 0-2.41 1.97-4.364 4.4-4.364 2.43 0 4.4 1.954 4.4 4.364m46.316-43.221c0 16.31-13.329 29.533-29.77 29.533-16.44 0-29.77-13.223-29.77-29.533 0-16.31 13.33-29.533 29.77-29.533 16.441 0 29.77 13.223 29.77 29.533" fill="#4D4C4E"/><path d="M266.004 317.485c-13.434 0-24.326-10.804-24.326-24.132V272.51c0-13.328 10.892-24.133 24.326-24.133 13.435 0 24.326 10.805 24.326 24.133v20.842c0 13.328-10.891 24.132-24.326 24.132" fill="#B78F65"/><path d="M290.209 291.003c0 .908-.743 1.646-1.659 1.646a1.653 1.653 0 0 1-1.658-1.646c0-.908.743-1.645 1.658-1.645.916 0 1.659.737 1.659 1.645" fill="#2D2D2D"/><path d="M279.152 291.552c0 3.028-2.476 5.484-5.529 5.484s-5.528-2.456-5.528-5.484c0-3.029 2.475-5.485 5.528-5.485 3.053 0 5.529 2.456 5.529 5.485" fill="#8C7052"/><path d="M274.73 294.842c1.222 0 2.211 1.229 2.21 2.743 0 .622-.167 1.195-.449 1.656-.403.66-1.042 1.086-1.762 1.086-1.222 0-2.212-1.228-2.212-2.743.002-1.514.991-2.742 2.213-2.742z" stroke="#FFC94B" stroke-width=".936"/><path d="M290.813 297.036c-.685.757-2.185.787-2.815.003" stroke="#997862" stroke-width="1.872" stroke-linecap="round"/><path d="M286.892 303.618c-1.106-1.9-2.266-.237-2.965.408" stroke="#EE3A52" stroke-width="1.872" stroke-linecap="round"/><path d="M286.583 286.342c1.865-1.22 4.163-1.12 5.565-.15" stroke="#4D4C4E" stroke-width="1.872" stroke-linecap="round"/><path d="M301.321 272.383c0 2.741-2.24 4.963-5.003 4.963s-5.003-2.222-5.003-4.963c0-2.742 2.24-4.964 5.003-4.964s5.003 2.222 5.003 4.964m-50.228 40.353c0 .795-.65 1.439-1.45 1.439a1.445 1.445 0 0 1-1.451-1.44c0-.795.649-1.439 1.45-1.439.802 0 1.45.644 1.45 1.44m-24.449-52.166c0 2.275-1.86 4.12-4.153 4.12-2.293 0-4.153-1.845-4.153-4.12 0-2.275 1.86-4.12 4.153-4.12 2.293 0 4.153 1.845 4.153 4.12m54.181-.986c0 6.819-5.572 12.347-12.446 12.347s-12.446-5.528-12.446-12.347 5.572-12.347 12.446-12.347 12.446 5.528 12.446 12.347m-51.554 26.97c0 2.692-2.2 4.875-4.913 4.875-2.714 0-4.914-2.183-4.914-4.875s2.2-4.875 4.914-4.875c2.713 0 4.913 2.183 4.913 4.875m53.656-41.852c0 2.85-2.33 5.163-5.205 5.163-2.874 0-5.204-2.312-5.204-5.163 0-2.851 2.33-5.164 5.204-5.164 2.875 0 5.205 2.313 5.205 5.164m-11.449 47.431c0 1.532-1.253 2.775-2.798 2.775a2.786 2.786 0 0 1-2.796-2.775 2.786 2.786 0 0 1 2.796-2.775c1.545 0 2.798 1.243 2.798 2.775m21.61-32.056a2.796 2.796 0 0 1-2.808 2.786c-1.552 0-2.809-1.247-2.809-2.786s1.257-2.786 2.809-2.786c1.551 0 2.808 1.247 2.808 2.786m-10.42 13.808c0 1.665-1.36 3.015-3.04 3.015-1.678 0-3.039-1.35-3.039-3.015s1.361-3.016 3.04-3.016c1.678 0 3.04 1.35 3.04 3.016m-20.778 38.981c0 2.237-1.83 4.052-4.085 4.052-2.257 0-4.085-1.815-4.085-4.052 0-2.238 1.828-4.052 4.085-4.052 2.255 0 4.084 1.814 4.084 4.052" fill="#4D4C4E"/><path d="M297.769 266.396c0 1.676-1.37 3.035-3.06 3.035s-3.058-1.359-3.058-3.035c0-1.676 1.369-3.035 3.058-3.035 1.69 0 3.06 1.36 3.06 3.035m-18.289 4.849a2.687 2.687 0 0 1-2.699 2.677 2.687 2.687 0 0 1-2.698-2.677 2.687 2.687 0 0 1 2.698-2.676 2.687 2.687 0 0 1 2.698 2.676m-5.459-30.607c0 1.46-1.195 2.645-2.668 2.645a2.657 2.657 0 0 1-2.667-2.645 2.658 2.658 0 0 1 2.667-2.647 2.658 2.658 0 0 1 2.668 2.647m12.789 33.97a2.687 2.687 0 0 1-2.698 2.676 2.687 2.687 0 0 1-2.698-2.676 2.687 2.687 0 0 1 2.698-2.677 2.687 2.687 0 0 1 2.698 2.677m-.728-18.011c0 3.715-3.036 6.728-6.782 6.728-3.745 0-6.782-3.013-6.782-6.728 0-3.716 3.037-6.729 6.782-6.729 3.746 0 6.782 3.013 6.782 6.729m-59.171 10.687c0 1.743-1.423 3.156-3.18 3.156-1.757 0-3.182-1.413-3.182-3.156s1.425-3.156 3.182-3.156 3.18 1.413 3.18 3.156m14.087 39.865c0 2.27-1.855 4.11-4.144 4.11-2.287 0-4.142-1.84-4.142-4.11 0-2.27 1.855-4.11 4.142-4.11 2.29 0 4.144 1.84 4.144 4.11m30.572-32.522c0 1.558-1.273 2.82-2.843 2.82s-2.843-1.262-2.843-2.82c0-1.558 1.273-2.82 2.843-2.82s2.843 1.262 2.843 2.82" fill="#4D4C4E"/><path d="M280.379 275.802c0 2.423-1.98 4.388-4.423 4.388s-4.423-1.965-4.423-4.388 1.98-4.388 4.423-4.388c2.442 0 4.423 1.965 4.423 4.388m-29.409-29.645c0 2.411-1.97 4.366-4.4 4.366-2.43 0-4.401-1.955-4.401-4.366 0-2.411 1.97-4.366 4.4-4.366 2.431 0 4.401 1.955 4.401 4.366m4.962 58.558c0 3.317-2.71 6.006-6.054 6.006-3.344 0-6.055-2.689-6.055-6.006s2.711-6.006 6.055-6.006c3.343 0 6.054 2.689 6.054 6.006m4.969-63.813c0 2.298-1.878 4.16-4.194 4.16s-4.194-1.862-4.194-4.16 1.878-4.16 4.194-4.16 4.194 1.862 4.194 4.16m32.315 31.995c0 2.277-1.861 4.123-4.157 4.123-2.296 0-4.157-1.846-4.157-4.123 0-2.278 1.86-4.124 4.157-4.124 2.296 0 4.157 1.846 4.157 4.124m-27.039 37.997c0 2.2-1.799 3.985-4.017 3.985-2.218 0-4.017-1.785-4.017-3.985s1.799-3.985 4.017-3.985c2.218 0 4.017 1.784 4.017 3.985" fill="#4D4C4E"/><path d="M244.036 242.703a2.748 2.748 0 0 1-2.759 2.737c-1.524 0-2.76-1.225-2.76-2.737s1.236-2.737 2.76-2.737c1.524 0 2.76 1.225 2.76 2.737m54.711 18.069c0 2.387-1.95 4.322-4.356 4.322-2.406 0-4.357-1.935-4.357-4.322s1.95-4.322 4.357-4.322c2.406 0 4.356 1.935 4.356 4.322m-29.183-19.254c0 2.568-2.099 4.65-4.687 4.65-2.589 0-4.688-2.082-4.688-4.65 0-2.568 2.1-4.65 4.688-4.65 2.588 0 4.687 2.082 4.687 4.65m-1.603 65.873a2.687 2.687 0 0 1-2.698 2.677 2.687 2.687 0 0 1-2.698-2.677 2.687 2.687 0 0 1 2.698-2.676 2.687 2.687 0 0 1 2.698 2.676m-38.576-28.489c0 1.816-1.483 3.288-3.313 3.288s-3.313-1.472-3.313-3.288c0-1.815 1.483-3.287 3.313-3.287s3.313 1.472 3.313 3.287m20.01 21.087c0 4.268-3.488 7.728-7.79 7.728-4.301 0-7.789-3.46-7.789-7.728s3.488-7.728 7.789-7.728c4.302 0 7.79 3.46 7.79 7.728" fill="#4D4C4E"/><path d="M229.394 276.195c0 3.635-2.97 6.581-6.634 6.581s-6.634-2.946-6.634-6.581c0-3.636 2.97-6.582 6.634-6.582s6.634 2.946 6.634 6.582m39.932 1.54c0 2.062-1.685 3.734-3.764 3.734-2.079 0-3.764-1.672-3.764-3.734 0-2.063 1.685-3.734 3.764-3.734 2.079 0 3.764 1.671 3.764 3.734M255.2 244.386c0 3.37-2.754 6.103-6.152 6.103s-6.152-2.732-6.152-6.103c0-3.371 2.754-6.104 6.152-6.104s6.153 2.733 6.153 6.104m12.531-2.182c0 2.043-1.668 3.7-3.728 3.7-2.059 0-3.727-1.657-3.727-3.7 0-2.042 1.668-3.698 3.727-3.698 2.06 0 3.728 1.656 3.728 3.698m-2.955 62.37c0 4.769-3.896 8.636-8.704 8.636-4.806 0-8.703-3.867-8.703-8.636 0-4.768 3.897-8.635 8.703-8.635 4.808 0 8.704 3.867 8.704 8.635" fill="#4D4C4E"/><path d="M267.889 303.516c0 1.762-1.44 3.189-3.214 3.189-1.776 0-3.215-1.427-3.215-3.19 0-1.76 1.439-3.188 3.215-3.188 1.774 0 3.214 1.427 3.214 3.189m-40.766-28.973c-2.62 2.716-6.962 2.812-9.7.214a6.768 6.768 0 0 1-.216-9.624c2.62-2.717 6.963-2.812 9.7-.214a6.768 6.768 0 0 1 .216 9.624m7.718-25.813c0 1.795-1.466 3.25-3.276 3.25-1.81 0-3.276-1.455-3.276-3.25 0-1.794 1.467-3.25 3.276-3.25 1.81 0 3.276 1.456 3.276 3.25m39.674 30.1c0 2.063-1.685 3.733-3.762 3.733-2.08 0-3.764-1.67-3.764-3.733 0-2.062 1.685-3.732 3.764-3.732 2.077 0 3.762 1.67 3.762 3.732" fill="#4D4C4E"/><path d="M287.998 267.42c0 6.057-4.95 10.968-11.058 10.968-6.107 0-11.057-4.91-11.057-10.969 0-6.058 4.95-10.97 11.057-10.97s11.058 4.912 11.058 10.97m-10.612 17.331c0 3.542-2.894 6.414-6.466 6.414-3.571 0-6.466-2.872-6.466-6.415s2.895-6.415 6.466-6.415c3.572 0 6.466 2.872 6.466 6.415m20.657-6.862c0 1.54-1.26 2.789-2.81 2.789-1.553 0-2.813-1.25-2.813-2.789 0-1.54 1.26-2.79 2.812-2.79 1.552 0 2.811 1.25 2.811 2.79m-61.342-30.92c0 1.58-1.291 2.86-2.883 2.86-1.594 0-2.885-1.28-2.885-2.86 0-1.58 1.291-2.861 2.885-2.861 1.592 0 2.883 1.28 2.883 2.86" fill="#4D4C4E"/><path d="M245.819 247.668c0 3.358-2.745 6.08-6.13 6.08-3.384 0-6.128-2.722-6.128-6.08s2.744-6.08 6.129-6.08c3.384 0 6.129 2.722 6.129 6.08m-10.659 7.685c0 3.358-2.744 6.08-6.128 6.08-3.385 0-6.13-2.722-6.13-6.08s2.745-6.08 6.13-6.08c3.384 0 6.129 2.722 6.129 6.08" fill="#4D4C4E"/><path d="M272.517 261.88c0 9.694-7.92 17.551-17.691 17.551-9.771 0-17.692-7.857-17.692-17.55 0-9.694 7.92-17.552 17.692-17.552 9.771 0 17.691 7.858 17.691 17.551" fill="#4D4C4E"/><path d="M270.306 290.575c0 13.423-7.92 24.304-17.692 24.304-9.77 0-17.691-10.88-17.691-24.304 0-13.424 7.92-24.305 17.691-24.305 9.772 0 17.692 10.881 17.692 24.305" fill="#4D4C4E"/><g transform="translate(263.362 293.746)"><mask id="d" fill="#fff"><use xlink:href="#c"/></mask><path d="M9.131 4.83c0 2.45-2.002 4.436-4.472 4.436C2.189 9.266.187 7.28.187 4.83S2.19.392 4.66.392c2.469 0 4.47 1.988 4.47 4.438" fill="#4D4C4E" mask="url(#d)"/></g><path d="M305.69 299.23s-2.234-11.466-4.759-14.956c-2.524-3.49-9.369-10.264-9.369-10.264s-2.939-4.278 3.433-7.975c7.042 3.697 8.754 8.894 13.618 15.631 4.864 6.738 10.345 23.049 10.345 23.049 0 3.635-8.499 8.775-12.163 8.775-3.665 0-1.106-10.625-1.106-14.26z" fill="#B78F65"/><path d="M282.098 323.595c-1.774 2.52-8.296 4.392-16.094 4.392-7.796 0-14.32-1.872-16.093-4.392-.867.13-1.698.283-2.5.451 2.343 2.896 9.884 4.902 18.593 4.902s16.25-2.006 18.593-4.902c-.8-.168-1.633-.32-2.5-.451" fill="#F2DDA0"/><path d="M277.715 257.945c-2.823.472-6.754 2.6-4.54 4.662 2.186 2.037 5.682-1.68 9.367-.818 1.141.267 2.3-.018 3.445 1.71 1.381 2.087.605 4.88 0 5.274-1.515.987-6.412-3.329-6.412 0 0 4.66 14.152 7.628 14.152 7.628 0 1.403 3.14-4.806 2.735-7.628-.405-2.821-.705-3.621-7.216-8.2-6.511-4.577-8.709-3.1-11.531-2.628z" fill="#B78F65"/><path d="M317.576 305.196c-8.013 2.805-11.61-8.564-12.979 1.708-.621 4.67-6.817 9.005-10.664 11.713-4.617 3.25-8.303 6.499-11.835 4.978-7.312 5.032-25.934 6.34-32.187 0-7.444 3.206-12.655 10.556-12.655 19.12v23.035s8.98 5.194 21.008 5.485c12.028.291 24.326-4.388 24.326-4.388l2.212-24.132s9.698-7.576 20.338-15.492c7.853-5.841 19.87-24.63 12.436-22.027z" fill="#EAC563"/><path d="M280 267.411c-1.579 2.545-1.36 1.445 2.138 5.004 3.498 3.559 4.136-.171 11.406 4.536 6.344 4.108 10.748 9.992 12.145 23.925.232 2.317 4.423 2.193 4.423 2.193s-10.4-27.35-14.37-28.682c-3.972-1.332-4.225-.868-8.102-2.286-4.549-1.664-7.64-4.69-7.64-4.69zm-39.003 73.503c.3 0 .545 1.867.545 4.168v16.673h-1.09v-16.673c0-2.3.243-4.168.545-4.168" fill="#292929" opacity=".2"/><path d="M259.907 214.496l.306-1.68c.277-1.479.813-2.75 1.607-3.812.794-1.063 2.05-2.176 3.77-3.339 1.806-1.206 2.953-2.118 3.441-2.735a3.252 3.252 0 0 0 .732-2.068c0-1.709-.968-2.563-2.906-2.563-.729 0-1.504.115-2.328.344-.823.23-2.29.833-4.403 1.81l-2.01-4.76c3.35-1.796 6.592-2.693 9.724-2.693 2.58 0 4.619.628 6.12 1.885 1.5 1.256 2.25 3.012 2.25 5.266 0 1.192-.207 2.265-.623 3.22-.415.955-1.016 1.838-1.802 2.65-.787.81-2.171 1.87-4.153 3.177-.932.617-1.635 1.141-2.109 1.572a5.99 5.99 0 0 0-1.147 1.39c-.291.495-.568 1.274-.83 2.336h-5.639zm-2.054 7.97c0-1.307.4-2.344 1.202-3.112.801-.769 1.894-1.153 3.278-1.153.99 0 1.781.273 2.371.819.59.545.885 1.314.885 2.304 0 1.25-.4 2.262-1.202 3.037-.8.776-1.843 1.164-3.125 1.164-1.078 0-1.915-.273-2.513-.819-.597-.546-.896-1.292-.896-2.24zm-31.507-.224l-.49-1.636c-.425-1.443-.525-2.819-.3-4.126.225-1.307.84-2.87 1.843-4.686 1.062-1.895 1.67-3.228 1.825-4a3.252 3.252 0 0 0-.286-2.175c-.776-1.522-2.027-1.844-3.754-.964-.649.33-1.288.785-1.917 1.364-.63.578-1.663 1.782-3.102 3.611l-3.953-3.329c2.171-3.12 4.652-5.392 7.443-6.814 2.298-1.17 4.4-1.537 6.308-1.098 1.907.438 3.373 1.661 4.396 3.67.541 1.062.844 2.113.907 3.152.064 1.04-.07 2.1-.403 3.18s-1.086 2.651-2.258 4.715c-.55.974-.939 1.76-1.165 2.358a5.99 5.99 0 0 0-.391 1.76c-.035.573.072 1.393.32 2.459l-5.023 2.56zm1.788 8.034c-.594-1.164-.708-2.27-.342-3.32.365-1.047 1.164-1.886 2.397-2.514.883-.45 1.711-.566 2.484-.347.774.218 1.386.769 1.835 1.651.568 1.114.67 2.198.308 3.252-.362 1.055-1.114 1.873-2.256 2.455-.96.49-1.831.627-2.611.412-.78-.215-1.385-.745-1.815-1.59zm61.202-3.716l.757-1.531c.674-1.346 1.539-2.42 2.595-3.222 1.056-.803 2.57-1.526 4.544-2.17 2.07-.662 3.423-1.222 4.063-1.681a3.252 3.252 0 0 0 1.273-1.786c.471-1.643-.224-2.731-2.087-3.265-.7-.201-1.478-.304-2.332-.31-.855-.007-2.432.169-4.732.525l-.62-5.13c3.715-.802 7.079-.771 10.09.092 2.479.711 4.266 1.877 5.362 3.499 1.096 1.621 1.334 3.515.712 5.683-.328 1.145-.824 2.12-1.486 2.923-.662.804-1.483 1.487-2.463 2.05-.98.563-2.603 1.2-4.867 1.91-1.067.336-1.887.646-2.461.93a5.99 5.99 0 0 0-1.486 1.019c-.416.396-.897 1.068-1.442 2.018l-5.42-1.555zm-4.171 7.094c.36-1.256 1.03-2.143 2.013-2.66.982-.518 2.138-.586 3.469-.205.952.273 1.636.753 2.053 1.44.417.688.489 1.508.216 2.46-.345 1.201-1.009 2.064-1.993 2.588-.984.525-2.092.61-3.324.257-1.037-.297-1.767-.79-2.19-1.48-.424-.689-.506-1.489-.244-2.4z" stroke="#4A4A4A" stroke-width="2" stroke-linecap="round" stroke-linejoin="round" fill="#F36F45"/></g></svg>