<svg xmlns="http://www.w3.org/2000/svg" viewBox="30.4 627.3 612 171.1"><path d="M30.4 669.9v85.8l75.5 42.7 75.5-42.7v-85.8l-75.5-42.7-75.5 42.7zm72.3 97.5l-44-24.3v-52.6l44 25v51.9zm49.8-24.4l-43.4 24.3v-51.8l43.4-25.4V743zm0-59.9l-46.7 27.8-47.2-27.8 47.2-25.4 46.7 25.4zm81.3-4.8h-24v71.2H226V723h7.8c14 0 24.3-8 24.3-22.9 0-14.5-10.5-21.8-24.3-21.8zm-3.2 31.9H226v-18.8h4.6c6.5 0 12.5 2.2 12.5 9.5-.1 7.2-6 9.3-12.5 9.3zm32.9-31.9h16.2v71.2h-16.2zm86.9 0h-20.3l-13.2 19.4-13.2-19.4h-19.1l22.4 32.8-24.4 38.4h20.3l14-24.2 14.1 24.2h21.1l-25.2-38.4zm4.3 71.2h40.8v-14.3h-24.6V721h23.5v-14.4h-23.5v-14.1h24.6v-14.2h-40.8zm101.4-71.2l-22.9 57h-15.9v-57h-16.2v71.2h44l5.4-14.3h27l5.4 14.3h17.5l-28.9-71.2h-15.4zm-.4 42.7l7.8-20.7h.2l7.8 20.7h-15.8zm30.7-28.5h17v57h16.2v-57h17v-14.2h-50.2zm55.6 57h40.8v-14.3h-24.4V721h23.5v-14.4h-23.5v-14.1h24.4v-14.2H542zm64.5-71.2h-17.9v71.2h17.9c19.7 0 35.9-14.9 35.9-35.6 0-20.8-16.5-35.6-35.9-35.6zm.5 56.7h-2.4v-42.1h2.4c12.1 0 20.3 9.1 20.3 21.1 0 11.8-8.2 21-20.3 21z" fill="#3E3B38"/><path fill="#3E3B38" d="M105.8 657.8v-30.5l75.6 42.6-28.9 13.2zm46.7 25.3l28.9-13.2v85.8L152.5 743zm-46.6 115.2V769l46.6-26 28.9 12.7zm-47.2-55.2l47.2 25.9v29.3l-75.5-42.6z"/><path fill="#3E3B38" d="M30.4 669.9l28.2 13.2.1 60-28.3 12.6zm75.4-41.9v29.8l-47.2 25.3-28.2-13.2 75.4-42.6z"/></svg>