<svg width="163" height="67" viewBox="401 289 163 67" xmlns="http://www.w3.org/2000/svg"><g fill="none" fill-rule="evenodd"><path d="M404.228 321.431h56.21m-27.351-28.889h32.515m-32.515 59.035h32.515" stroke="#4A4A4A" stroke-width="1.35" stroke-linecap="round" stroke-linejoin="round"/><path d="M559.892 299.406c0-1.054-.372-1.93-1.122-2.63a3.816 3.816 0 0 0-2.688-1.055h-73.72c-1.039 0-1.93.354-2.681 1.055-.756.7-1.128 1.576-1.128 2.63v44.943c0 1.055.372 1.93 1.128 2.637.75.701 1.642 1.049 2.682 1.049h73.72c1.039 0 1.93-.348 2.687-1.05.75-.706 1.122-1.581 1.122-2.636v-44.943z" fill="#E9E7F3"/><path d="M559.892 299.406c0-1.054-.045-1.93-.135-2.63-.092-.701-.2-1.055-.325-1.055h-8.9c-.126 0-.234.354-.325 1.055-.09.7-.136 1.576-.136 2.63v44.943c0 1.055.045 1.93.136 2.637.091.701.199 1.049.324 1.049h8.901c.126 0 .233-.348.325-1.05.09-.706.135-1.581.135-2.636v-44.943z" fill="#DDD9ED"/><path d="M553.489 337.152c1.04.588 1.21 1.463.52 2.631-.349.587-.869.88-1.56.88-.23 0-.579-.119-1.04-.353l-16.61-11.235c-1.04-.582-1.21-1.462-.52-2.631.58-1.055 1.442-1.228 2.594-.527l16.616 11.235zm-34.267-5.614l-32.358-21.243c-1.04-.708-1.211-1.522-.52-2.463.691-1.169 1.495-1.402 2.422-.701l30.456 20.014 30.457-20.014c.927-.701 1.73-.468 2.428.7.69.942.52 1.756-.52 2.464l-32.365 21.243zm-15.056-5.094c.697 1.169.52 2.05-.52 2.63l-16.61 11.236c-.462.234-.81.354-1.04.354-.692 0-1.211-.294-1.554-.881-.697-1.168-.52-2.043.514-2.63l16.616-11.236c1.152-.701 2.015-.528 2.594.527zm55.726-27.038c0-1.054-.372-1.93-1.122-2.63a3.816 3.816 0 0 0-2.688-1.055h-73.72c-1.039 0-1.93.354-2.681 1.055-.756.7-1.128 1.576-1.128 2.63v44.943c0 1.055.372 1.93 1.128 2.637.75.701 1.642 1.049 2.682 1.049h73.72c1.039 0 1.93-.348 2.687-1.05.75-.706 1.122-1.581 1.122-2.636v-44.943zm1.471-5.35c1.441 1.461 2.162 3.247 2.162 5.35v44.943c0 2.11-.72 3.895-2.162 5.357-1.447 1.463-3.202 2.194-5.28 2.194h-73.72c-2.08 0-3.834-.731-5.281-2.194-1.441-1.462-2.162-3.247-2.162-5.357v-44.943c0-2.103.72-3.889 2.162-5.35 1.447-1.469 3.202-2.2 5.28-2.2h73.72c2.08 0 3.834.731 5.281 2.2z" fill="#4A4A4A"/><path d="M519.222 331.538l-32.358-21.243c-1.04-.708-1.211-1.522-.52-2.463.691-1.169 1.495-1.402 2.422-.701l30.456 20.014v4.393z" fill="#4A4A4A"/></g></svg>